<?xml version="1.0" encoding="UTF-8"?>
<svg id="Layer_2" data-name="Layer 2" xmlns="http://www.w3.org/2000/svg" width="24.32" height="27" viewBox="0 0 24.32 27">
  <g id="svg2">
    <path id="path36" d="M6.38,0c-.16,0-.36,.04-.61,.12-.67,.51-1.48,1.3-2.44,2.35-.78,.59-1.31,1.2-1.56,1.83-.06,.18-.24,.56-.53,1.16-.29,.6-.71,1.84-1.24,3.72,.02,.57,.11,.86,.27,.86,.12,0,.29-.18,.5-.53,.16-.49,.38-1.16,.68-2.02,.29-.85,.77-1.57,1.41-2.13,.37-.29,.69-.49,.94-.59,.59,0,.88,.39,.88,1.18v14.54c.04,.55-.11,.99-.44,1.32-.65,.47-1.09,1.12-1.32,1.94-.14,.75-.08,1.77,.18,3.06,.16,.11,.36,.17,.6,.17,.09,0,.19,0,.29-.02-.18-.71-.26-1.32-.26-1.85-.1-1.08,.2-1.86,.88-2.35,.18-.14,.4-.21,.68-.21,.31,0,.55,.05,.71,.15,.67,.51,.95,1.31,.85,2.41,0,.53-.09,1.14-.26,1.83,.12,.03,.24,.04,.35,.04,.21,0,.39-.05,.54-.16,.26-1.3,.32-2.31,.21-3.03-.22-.84-.64-1.5-1.27-1.97-.39-.33-.57-.78-.53-1.32V5.96c-.02-1.55-.58-2.35-1.68-2.41,.29-.49,.85-1.15,1.68-1.97,.37-.2,.67-.54,.88-1.03C6.82,.18,6.7,0,6.38,0Z"/>
    <path id="path38" d="M17.51,.89c1.59,0,3.59,.82,4.55,1.78,.84,.84,.95,1.96,.99,3H12.02c.03-1.04,.14-2.16,.99-3,.96-.96,2.91-1.78,4.5-1.78Zm0-.89c-1.89,0-3.92,.87-5.11,2.06-1.22,1.22-1.36,2.83-1.36,4.04v.47h12.95v-.47c0-1.2-.09-2.81-1.31-4.04-1.19-1.19-3.27-2.06-5.16-2.06Z"/>
    <path id="path40" d="M17.54,14.69c.8,0,1.62,.17,2.45,.52l-2.38,2.41-2.44-2.41c.77-.35,1.56-.52,2.36-.52Zm-5.2,3.15l2.41,2.41-2.41,2.41c-.7-1.67-.7-3.27,0-4.81Zm10.4,.12c.7,1.67,.7,3.27,0,4.81l-2.41-2.41,2.41-2.41Zm-1.88-2.04c.49,.23,.88,.62,1.17,1.17l-3.27,3.3,3.24,3.24c-.27,.53-.67,.93-1.2,1.17l-3.24-3.24-3.18,3.18c-.53-.33-.93-.73-1.17-1.2l3.18-3.15-3.33-3.33c.23-.53,.63-.92,1.2-1.14l3.3,3.3,3.3-3.3Zm-3.24,7.16l2.41,2.41c-.78,.35-1.57,.52-2.38,.52s-1.62-.17-2.44-.52l2.41-2.41Zm-.06-9.41c-2.12,0-3.79,.69-5.02,2.07-1.22,1.38-1.84,2.89-1.84,4.54,0,1.85,.71,3.43,2.14,4.74,1.43,1.31,2.98,1.97,4.64,1.99,2.02-.02,3.66-.71,4.92-2.08,1.27-1.37,1.9-2.92,1.9-4.64h0l-.03,.06c.02-1.56-.6-3.07-1.87-4.51s-2.89-2.16-4.86-2.16Z"/>
  </g>
</svg>