<?xml version="1.0" encoding="UTF-8"?>
<svg id="Layer_2" data-name="Layer 2" xmlns="http://www.w3.org/2000/svg" width="24.52" height="27" viewBox="0 0 24.52 27">
  <g id="svg2">
    <path id="path256" d="M2.36,0l-.5,1.09L.25,4.67l-.25,.5,1.05,.5,.25-.55,1.09-2.48,.55,.97,.5,1.01,.5-1.01,.59-1.05,.55,1.05,.5,1.01,.5-1.01,.55-1.05,.59,1.05,.5,1.01,.5-1.01,.55-1.01,.55,1.01,.55,1.01,.5-1.01,.55-1.05,.55,1.05,.55,1.01,.5-1.01,.55-1.05,.55,1.05,.55,1.01,.5-1.01,.55-1.05,.55,1.05,.5,1.01,.55-1.01,.55-1.05,.55,1.05,.5,1.01,.55-1.01,.55-1.05,.59,1.09,.5,.93,.55-.93,.59-1.14,1.47,2.65,.29,.5,1.01-.55-.25-.5-2.02-3.62-.5-.88-.5,.93-.63,1.09-.59-1.09-.55-.97-.46,.97-.59,1.05-.55-1.05L17.37,.04l-.5,1.01-.55,1.05-.59-1.05L15.23,.04l-.5,1.01-.59,1.05-.55-1.05L13.08,.04l-.5,1.01-.55,1.05-.59-1.05L10.94,.04l-.5,1.01-.55,1.01-.55-1.01L8.79,.04l-.5,1.01-.55,1.05-.55-1.05L6.65,.04l-.5,1.01-.55,1.05-.55-1.05L4.54,.04l-.55,1.01-.55,1.05-.55-1.05-.55-1.05Z"/>
    <path id="path258" d="M5.49,8.98c1.35,0,3.04,.69,3.86,1.51,.72,.72,.81,1.67,.84,2.55H.84c.03-.88,.12-1.83,.84-2.55,.82-.82,2.47-1.51,3.82-1.51Zm0-.76c-1.6,0-3.33,.74-4.34,1.75-1.04,1.04-1.15,2.4-1.15,3.42v.4H10.99v-.4c0-1.02-.08-2.39-1.11-3.42-1.01-1.01-2.78-1.75-4.38-1.75Z"/>
    <path id="path260" d="M19.03,8.98c1.35,0,3.04,.69,3.86,1.51,.72,.72,.81,1.67,.84,2.55H14.37c.03-.88,.12-1.83,.84-2.55,.82-.82,2.47-1.51,3.82-1.51Zm0-.76c-1.6,0-3.33,.74-4.34,1.75-1.04,1.04-1.15,2.4-1.15,3.42v.4h10.99v-.4c0-1.02-.08-2.39-1.11-3.42-1.01-1.01-2.78-1.75-4.38-1.75Z"/>
    <path id="path262" d="M5.31,20.33c-.86,.07-1.33,.5-1.42,1.29,.11,.86,.59,1.31,1.42,1.35,.83-.05,1.27-.5,1.32-1.35-.07-.79-.51-1.22-1.32-1.29Zm.1-2.84c.61,0,1.17,.11,1.69,.34,.52,.23,.98,.54,1.37,.93,.39,.39,.7,.85,.93,1.35,.23,.51,.34,1.04,.34,1.61s-.11,1.13-.34,1.64c-.23,.51-.54,.95-.93,1.34-.39,.38-.85,.68-1.37,.9-.52,.21-1.08,.32-1.69,.32s-1.18-.11-1.71-.32c-.53-.21-.99-.51-1.37-.9s-.69-.83-.91-1.34c-.23-.51-.34-1.05-.34-1.64s.11-1.1,.34-1.61,.53-.96,.91-1.35,.84-.7,1.37-.93c.53-.23,1.1-.34,1.71-.34Zm-.07-1.15c-.74,0-1.44,.14-2.1,.42-.65,.28-1.22,.67-1.69,1.15s-.85,1.05-1.13,1.69c-.28,.64-.42,1.34-.42,2.08s.14,1.44,.42,2.08c.28,.64,.66,1.2,1.13,1.67s1.04,.85,1.69,1.13,1.35,.42,2.1,.42,1.44-.14,2.08-.42,1.21-.66,1.69-1.13,.87-1.03,1.15-1.67c.28-.64,.42-1.34,.42-2.08s-.14-1.44-.42-2.08c-.28-.64-.67-1.21-1.15-1.69s-1.05-.87-1.69-1.15c-.64-.28-1.34-.42-2.08-.42Z"/>
    <path id="path264" d="M23.6,17.79v9.21h.92v-9.21h-.92Z"/>
  </g>
</svg>