<?xml version="1.0" encoding="UTF-8"?>
<svg id="Layer_2" data-name="Layer 2" xmlns="http://www.w3.org/2000/svg" width="23.03" height="27" viewBox="0 0 23.03 27">
  <g id="svg2">
    <path id="path236" d="M6.29,1.94c-.34,.62-.51,1.3-.51,2.03,0,.79,.26,1.5,.79,2.1l-4.56-.79v-.3c2.09-1.85,3.51-2.87,4.28-3.04Zm6.29-.3h0c2.29,.36,4.15,.94,5.56,1.75v.05c-1.42,1.09-3.33,1.98-5.73,2.67,.48-.72,.72-1.45,.72-2.19s-.19-1.5-.56-2.28Zm-3.13-.33c.84,0,1.47,.18,1.87,.54s.61,1.07,.61,2.13c-.03,1.43-.87,2.15-2.5,2.15s-2.5-.72-2.5-2.15c0-1.06,.21-1.77,.63-2.13,.42-.36,1.05-.54,1.89-.54Zm0-1.31c-1.2,0-2.5,.3-3.9,.91-.73,.33-1.59,.94-2.58,1.82-.99,.89-1.82,1.39-2.49,1.5-.31,0-.47,.4-.47,1.2s.13,1.2,.4,1.2c.29,0,.58,0,.85,0,1.79,0,3.22,.13,4.28,.4,1.22,.3,2.52,.46,3.89,.46,2.9,0,5.72-.86,8.46-2.57,1.62-.42,3.06-.63,4.33-.63h.82l-.02-1.82c-1.47,0-2.96-.17-4.49-.51C14.68,.65,11.66,0,9.45,0Z"/>
    <path id="path238" d="M2.21,10.01l-.47,1.03L.24,14.39l-.24,.47,.99,.47,.24-.51,1.03-2.33,.51,.91,.47,.95,.47-.95,.55-.99,.51,.99,.47,.95,.47-.95,.51-.99,.55,.99,.47,.95,.47-.95,.51-.95,.51,.95,.51,.95,.47-.95,.51-.99,.51,.99,.51,.95,.47-.95,.51-.99,.51,.99,.51,.95,.47-.95,.51-.99,.51,.99,.47,.95,.51-.95,.51-.99,.51,.99,.47,.95,.51-.95,.51-.99,.55,1.03,.47,.87,.51-.87,.55-1.07,1.38,2.49,.28,.47,.95-.51-.24-.47-1.9-3.4-.47-.83-.47,.87-.59,1.03-.55-1.03-.51-.91-.43,.91-.55,.99-.51-.99-.47-.95-.47,.95-.51,.99-.55-.99-.47-.95-.47,.95-.55,.99-.51-.99-.47-.95-.47,.95-.51,.99-.55-.99-.47-.95-.47,.95-.51,.95-.51-.95-.51-.95-.47,.95-.51,.99-.51-.99-.51-.95-.47,.95-.51,.99-.51-.99-.47-.95-.51,.95-.51,.99-.51-.99-.51-.99Z"/>
    <path id="path240" d="M11.06,17.87v9.13h.91v-9.13h-.91Z"/>
  </g>
</svg>