<?xml version="1.0" encoding="UTF-8"?>
<svg id="Layer_2" data-name="Layer 2" xmlns="http://www.w3.org/2000/svg" width="27.46" height="27" viewBox="0 0 27.46 27">
  <g id="svg2">
    <path id="path106" d="M8.31,16.49c-.36,0-.64,.12-.86,.36-.22,.24-.33,.5-.33,.8,0,.26,.11,.51,.33,.76,.22,.25,.49,.37,.83,.37,.38,0,.67-.11,.88-.34,.21-.23,.31-.49,.31-.79,0-.32-.12-.59-.37-.82-.25-.23-.51-.34-.79-.34Zm0-.27c.36,0,.69,.14,.99,.42s.46,.61,.46,1.01c0,.36-.13,.68-.4,.98-.27,.3-.63,.45-1.08,.45-.42,0-.76-.16-1.02-.48s-.4-.63-.4-.95c0-.38,.13-.71,.4-.99,.27-.29,.62-.43,1.05-.43Zm0-7.45c-.38,0-.59,.39-.65,1.16v5.08c.02,.4-.09,.76-.33,1.1-.21,.08-.41,.12-.61,.12s-.39-.04-.58-.12l-4.81-1.57c-.27-.06-.49-.09-.68-.09-.35,0-.56,.11-.63,.33-.12,.36,.19,.68,.92,.98l4.84,1.54c.38,.12,.68,.36,.92,.71,0,.44-.13,.81-.39,1.13l-2.97,4.1c-.42,.67-.48,1.11-.18,1.31,.08,.06,.17,.09,.26,.09,.26,0,.58-.22,.95-.65l2.97-4.1c.22-.34,.53-.57,.95-.71,.4,.12,.71,.36,.95,.71l2.97,4.1c.38,.43,.69,.65,.94,.65,.09,0,.17-.03,.25-.09,.3-.22,.25-.66-.15-1.34l-3-4.1c-.26-.32-.38-.68-.36-1.1,.24-.36,.55-.59,.95-.71l4.81-1.54c.73-.3,1.04-.61,.92-.95-.08-.24-.3-.36-.66-.36-.18,0-.4,.03-.65,.09l-4.84,1.57c-.19,.07-.38,.1-.57,.1s-.39-.03-.59-.1c-.26-.34-.38-.7-.36-1.1v-5.08c-.06-.77-.27-1.16-.62-1.16Z"/>
    <path id="path108" d="M24.4,2.13s.07,.03,.07,.09c0,.13-.02,.26-.1,.4-.08,.14-.16,.24-.24,.3-.02,.02-.04,.03-.05,.03-.03,0-.02-.05,.02-.14,.04-.1,.05-.14,.02-.14-.01,0-.03,0-.05,.03-.03,.02-.05,.03-.06,.03-.03,0-.03-.04,0-.12,.04-.12,.1-.24,.18-.35,.09-.07,.16-.11,.21-.11Zm-1.89,.55c.16,.02,.31,.05,.44,.09-.16,.12-.33,.19-.5,.21-.05,.01-.09,.02-.13,.02-.1,0-.19-.04-.26-.11,.07-.12,.13-.18,.18-.18,0,0,.02,0,.02,0-.08,.18-.02,.27,.18,.27,.2-.1,.22-.2,.06-.3Zm1.39,.3c.1,.06,.12,.11,.07,.16-.02,.02-.05,.04-.07,.04s-.04-.01-.06-.04c-.04-.05-.02-.1,.06-.16Zm-1.42-.47c-.07,0-.13,0-.18,.02-.2,.06-.35,.22-.44,.47,.19,.11,.36,.17,.52,.17,.06,0,.12,0,.17-.02,.21-.06,.41-.18,.61-.35l.41-.06-.03-.12-.41,.06c-.26-.11-.47-.17-.65-.17Zm2-.62s-.11,.02-.18,.06c-.15,.08-.27,.22-.37,.43-.1,.21-.11,.36-.03,.46-.12,.06-.18,.14-.19,.25,0,.11,.04,.17,.16,.19,0,0,.02,0,.03,0,.11,0,.25-.1,.41-.31,.18-.23,.29-.43,.33-.61s.03-.31-.03-.4c-.03-.05-.08-.07-.13-.07Zm-.35-1.39c.09,0,.19,0,.29,0,.76,.05,1.2,.37,1.32,.98,.12,.6-.07,1.18-.58,1.75-.23,.26-.38,.39-.44,.39-.06,0-.01-.17,.16-.51,.32-.64,.38-1.13,.19-1.48-.1-.19-.27-.28-.52-.28-.21,0-.48,.07-.79,.2-.85-.1-1.14-.31-.87-.64,.23-.28,.65-.42,1.25-.42Zm.3,1.29s.1,0,.14,.02c.22,.05,.28,.24,.18,.56s-.25,.61-.44,.84-.26,.47-.19,.7,.24,.37,.52,.43c.04,.47,.25,.91,.62,1.3,.89,.91,1.2,1.93,.95,3.08-.26,1.14-.46,1.95-.62,2.43-.28,.41-.99,.66-2.13,.74-.2-1.44-.44-2.5-.74-3.18-.3-.68-.26-1.11,.1-1.29,.36-.18,1-.49,1.91-.95,.52-.67,.22-1.01-.9-1.01-.06,0-.12,0-.19,0h0c-.1-.58-.3-.88-.61-.88-.06,0-.13,.01-.19,.03-.14,.05-.27,.07-.37,.07-.22,0-.34-.11-.37-.32,.24-.16,.3-.27,.19-.33-.11-.06-.26-.09-.46-.09,.1-.18,.03-.31-.21-.38l.38-.95c.11-.13,.28-.19,.53-.19,.2,0,.45,.04,.75,.13,.18-.08,.1-.17-.24-.27-.19-.05-.37-.08-.55-.08-.14,0-.29,.02-.43,.05,.12-.3,.25-.45,.38-.46h.03c.16,0,.53,.07,1.13,.22,.04,.06,.08,.09,.14,.09,.07,0,.15-.05,.25-.14,.14-.13,.29-.19,.45-.19Zm.91,10.24c.16,0,.31,.07,.44,.21,.22,.28,.43,1.15,.65,2.63,.06,1.26,.06,2.24,0,2.93-.04,.21-.37,.31-1.01,.31h-.09c-.1,0-.2,0-.31,0-.63,0-1.39,.03-2.27,.08,.04-1.3,.19-2.46,.44-3.49s.67-1.76,1.24-2.22c.04-.02,.19-.11,.44-.27,.18-.12,.33-.18,.44-.18Zm-.97-12.02c-.4,0-.8,.08-1.2,.24-.62,.25-1.12,.84-1.49,1.79-.08,.34-.29,.86-.62,1.57-.04,.23,0,.34,.11,.34,.01,0,.03,0,.04,0,.05,0,.09-.01,.12-.01,.07,0,.13,.02,.17,.06-.06,.06-.08,.13-.06,.21,.02,.06,.04,.09,.09,.09,.01,0,.02,0,.03,0,.02,0,.03,0,.05,0,.03,0,.02,.02-.03,.07-.07,.06-.06,.14,.01,.25,.08,.11,.14,.25,.18,.41,.04,.15,.13,.22,.28,.22,.02,0,.04,0,.06,0,.19-.02,.42-.07,.7-.15l.12,.59c-.91,.22-1.83,.88-2.78,1.98-.63-1.05-1.54-2.2-2.72-3.46,.02-1.03-.35-1.81-1.09-2.37-.28-.3-.46-.46-.55-.49-.02,0-.05-.01-.06-.01-.05,0-.08,.03-.1,.09-.12,0-.18,.05-.18,.15-.08,0-.12,.06-.12,.18-.12,0-.18,.02-.19,.06,0,.04,.02,.1,.1,.18,.81,.77,1.23,1.32,1.27,1.66,.02,.09,.01,.14-.03,.14-.03,0-.08-.03-.15-.08-.28-.51-.48-.79-.62-.83-.05-.02-.1-.03-.13-.03-.09,0-.11,.08-.05,.24,.16,.14,.32,.38,.47,.74,.16,.35,.33,.6,.52,.72s.34,.21,.46,.25c.28,.79,.98,1.9,2.1,3.34l-.95,.44c-.59-.99-1.43-2.07-2.51-3.25h0c.01-1.01-.36-1.79-1.12-2.34-.26-.3-.43-.46-.52-.49-.02,0-.05-.01-.06-.01-.05,0-.08,.03-.1,.09-.12,0-.18,.05-.18,.15-.1,0-.15,.05-.15,.15-.1,0-.15,.02-.16,.07s.02,.11,.1,.19c.81,.77,1.23,1.32,1.27,1.66,.02,.09,0,.14-.04,.14-.04,0-.09-.03-.17-.08-.26-.51-.46-.79-.62-.83-.05-.02-.09-.03-.13-.03-.09,0-.09,.08-.02,.24,.16,.14,.32,.38,.47,.74,.16,.35,.33,.6,.52,.72s.34,.21,.46,.25c.69,1.64,1.51,2.93,2.46,3.87,.08,.03,.17,.04,.28,.04,.3,0,.69-.11,1.17-.32,.65-.29,1.14-.5,1.46-.65s.69-.36,1.08-.64c.28,.28,.49,.67,.65,1.17s.3,1.33,.41,2.47c-.61,.08-.9,.25-.86,.5-.04,.26,.09,.4,.38,.44l-.44,1.15,.95,.03c-.2,.55-.38,1.18-.56,1.88-.18,.7-.27,1.49-.27,2.38-.08,1.05-.13,1.79-.16,2.25-.03,.45-.03,.99-.01,1.6,.02,.28-.03,.66-.15,1.15-.12,.49-.26,1.04-.41,1.63-.26,.32-.8,.56-1.64,.72-.84,.17-1.38,.35-1.61,.55,0,.18,.22,.39,.65,.65,.21,.12,.45,.19,.71,.19,.28,0,.6-.07,.95-.21,.67-.28,1.15-.41,1.45-.41,.61,0,.78-.49,.5-1.48,.91-2.09,1.29-3.55,1.15-4.38,.32-.81,.5-1.41,.56-1.8l1.33-.03c.1,.69,.29,1.38,.56,2.07,.24,1.87,.39,3.16,.47,3.87-.59,.67-1.26,1.09-2.01,1.27-.73,.2-1.06,.41-1.01,.65,.35,.29,.76,.43,1.2,.43,.22,0,.46-.04,.7-.11,.74-.22,1.32-.37,1.73-.47,.41-.1,.55-.37,.41-.83-.04-.34-.06-.69-.06-1.06,.34-2.09,.33-3.43-.03-4.02-.06-.63-.09-1.57-.09-2.81-.02-1.42-.08-2.43-.18-3.02,.02-.47-.22-1.57-.71-3.28,.34-1.3,.57-2.47,.71-3.52s-.26-1.92-1.18-2.63c-.34-.3-.53-.72-.59-1.27,.49-.35,.84-.78,1.05-1.29s.23-1.03,.06-1.57c-.17-.54-.57-.88-1.2-1.02-.23-.05-.45-.07-.68-.07Z"/>
  </g>
</svg>